# xmcd
#
# Track frame offsets:
#	150
#	22888
#	54053
#	75248
#	125704
#	160741
#	193292
#
# Disc length: 2942 seconds
#
# Revision: 3
# Processed by: cddbd v1.5.2PL0 Copyright (c) Steve Scherf et al.
# Submitted via: EasyCDDAExtractor 11.0.0.1
#
DISCID=4a0b7c07
DTITLE=Various Artist - Appermont and Barberàn - Symphony No. 1
DYEAR=2003
DGENRE=Wind Orchestra
TTITLE0=Bert Appermont - Symphony No. 1: GILGAMESH: I Gilgamesh and Enkidu
TTITLE1=Bert Appermont - Symphony No. 1: GILGAMESH: II Confrontation
TTITLE2=Bert Appermont - Symphony No. 1: GILGAMESH: III Adventures in the Fore
TTITLE2=st
TTITLE3=Bert Appermont - Symphony No. 1: GILGAMESH: IV Journey to Utnapishim
TTITLE4=Teodoro Aparicio Barberán - Symphony No. 1: ASGARD: I The Door of Vall
TTITLE4=Hall
TTITLE5=Teodoro Aparicio Barberán - Symphony No. 1: ASGARD: II The Guard of th
TTITLE5=e Clouds
TTITLE6=Teodoro Aparicio Barberán - Symphony No. 1: ASGARD: III Crazy Man
EXTD=
EXTT0=
EXTT1=
EXTT2=
EXTT3=
EXTT4=
EXTT5=
EXTT6=
PLAYORDER=
